<svg width="716" height="156" viewBox="0 0 716 156" fill="none" xmlns="http://www.w3.org/2000/svg">
<path d="M303.978 93.858C303.608 94.218 303.348 94.598 302.988 94.828C301.938 95.468 300.828 96.018 299.788 96.658C297.738 97.918 295.598 98.538 293.148 98.038C292.178 97.838 291.108 98.068 290.098 98.158C288.158 98.328 286.328 98.178 284.598 97.038C283.868 96.558 282.798 96.538 281.858 96.418C280.968 96.308 280.248 96.708 279.858 97.548C279.288 98.788 278.278 99.118 277.008 99.078C274.698 99.008 272.388 99.228 270.138 98.308C269.368 97.998 268.278 98.338 267.368 98.548C266.638 98.718 265.988 98.848 265.558 98.128C265.118 97.388 264.388 97.358 263.698 97.078C262.208 96.478 260.718 95.768 259.428 94.828C258.008 93.788 256.748 92.498 255.518 91.218C254.448 90.108 253.178 89.668 251.688 89.508C249.858 89.308 248.038 89.038 246.228 88.708C244.368 88.368 242.648 88.628 241.248 89.918C240.008 91.048 238.658 91.638 236.978 91.488C236.028 91.408 235.248 91.798 234.618 92.498C234.018 93.158 233.278 93.468 232.408 93.218C228.598 92.148 224.788 91.048 220.978 89.958C220.798 89.908 220.638 89.758 220.168 89.468C220.868 88.968 221.278 88.548 221.778 88.328C224.438 87.188 225.068 84.828 225.358 82.328C225.498 81.148 224.768 80.438 223.448 80.458C222.368 80.478 221.278 80.698 220.238 81.008C219.098 81.348 218.158 81.248 217.168 80.518C215.888 79.568 214.468 79.168 212.988 80.198C211.978 80.908 211.898 81.968 212.838 82.768C213.678 83.488 214.638 83.728 215.698 83.298C216.208 83.098 216.688 82.828 217.208 82.668C217.798 82.478 218.428 82.358 218.918 83.348C218.528 83.598 218.138 83.898 217.708 84.098C216.538 84.638 215.308 85.038 214.178 85.658C212.468 86.588 210.728 86.898 208.848 86.378C205.718 85.518 202.618 85.698 199.618 86.878C197.008 87.898 194.438 89.018 191.868 90.118C191.458 90.288 191.128 90.638 190.398 91.158C191.348 91.498 191.938 91.738 192.548 91.918C193.268 92.128 194.168 92.088 194.698 92.508C197.348 94.598 200.518 94.138 203.528 94.428C206.108 94.678 208.698 94.708 211.278 94.988C216.848 95.588 222.408 96.278 228.038 96.138C228.428 96.128 228.818 96.228 229.578 96.328C229.108 96.848 228.888 97.298 228.558 97.418C226.308 98.208 224.068 99.048 221.768 99.628C219.678 100.158 217.518 100.578 215.368 100.678C212.098 100.828 208.818 100.728 205.548 100.568C204.068 100.498 202.608 99.958 201.128 99.788C198.278 99.468 195.408 99.358 192.568 98.978C190.558 98.708 188.598 98.138 186.618 97.698C186.288 97.628 185.948 97.428 185.628 97.458C183.608 97.678 182.278 96.598 181.078 95.178C180.728 94.758 180.288 94.418 179.888 94.048C179.168 93.378 178.358 93.228 177.418 93.508C176.768 93.708 176.098 93.998 175.438 93.988C173.458 93.958 171.708 94.648 169.948 95.418C169.408 95.658 168.768 95.698 168.168 95.758C166.608 95.918 165.038 96.028 163.478 96.188C163.008 96.238 162.448 96.268 162.098 96.538C160.638 97.668 158.958 98.088 157.188 98.378C155.518 98.648 153.848 98.968 152.228 99.438C149.688 100.158 147.188 101.028 144.668 101.828C144.538 101.868 144.418 101.978 144.288 101.978C140.708 102.168 137.518 103.878 134.078 104.638C132.888 104.898 131.638 104.948 130.408 104.988C128.418 105.058 126.558 105.638 124.648 106.158C122.788 106.658 120.868 107.118 118.898 107.368C114.958 107.858 110.978 108.378 107.228 109.998C104.938 110.988 102.418 111.438 99.9976 112.118C99.6676 112.208 99.2576 112.138 98.9976 112.308C96.1176 114.188 92.6575 114.568 89.5575 115.938C84.9175 117.998 80.3175 120.198 75.5875 122.078C74.1475 122.648 72.9075 123.688 71.5075 124.388C69.7475 125.268 67.9375 126.068 66.1175 126.828C64.6075 127.458 63.0275 127.928 61.5375 128.598C60.0575 129.268 58.6375 130.088 57.2275 130.898C56.0475 131.568 54.8875 132.278 53.7675 133.058C51.9775 134.298 50.1375 135.478 48.5075 136.898C46.3975 138.728 44.4475 140.758 42.4675 142.738C41.3575 143.838 40.1775 144.338 38.5875 143.848C36.6575 143.248 34.8775 143.498 33.1875 144.798C32.1275 145.618 30.7875 146.088 29.5475 146.658C27.2875 147.718 27.0075 148.228 27.4175 150.698C27.6075 151.838 26.8275 152.558 26.0375 153.008C24.7475 153.738 23.3475 154.218 22.2275 155.308C21.6075 155.918 20.6375 155.708 19.9475 155.168C18.9175 154.368 17.8375 154.528 16.6375 154.658C13.9975 154.958 11.3375 155.118 8.68755 155.268C7.01755 155.358 5.71755 154.398 4.36755 153.598C3.54755 153.118 2.72755 152.638 1.89755 152.188C0.337546 151.338 -0.252453 150.388 0.0975467 148.678C0.637547 146.038 1.70755 143.918 4.67755 142.988C8.03755 141.938 11.2475 140.438 14.4975 139.058C18.2475 137.468 22.1175 136.078 25.6475 134.078C28.1575 132.658 31.0875 131.838 33.1175 129.538C33.6675 128.908 34.6075 128.598 35.3975 128.218C40.6675 125.678 45.9375 123.128 51.2375 120.648C53.2575 119.698 54.8875 118.248 56.4675 116.748C66.6375 107.098 76.3675 97.028 85.8975 86.758C92.6875 79.448 99.4176 72.088 106.068 64.648C111.938 58.078 117.618 51.338 123.428 44.728C127.748 39.808 132.178 34.978 136.508 30.068C137.358 29.108 137.938 27.908 138.748 26.898C143.558 20.868 148.398 14.848 153.238 8.83799C155.248 6.33799 157.248 3.81799 159.288 1.33799C160.678 -0.362013 161.068 -0.382007 162.798 0.937993C163.118 1.18799 163.478 1.38798 163.798 1.64798C165.238 2.79798 165.338 4.03799 164.308 5.55799C163.438 6.84799 162.748 8.25799 161.948 9.58799C160.758 11.578 159.548 13.548 158.358 15.538C157.238 17.408 156.118 19.288 155.018 21.168C152.738 25.108 149.888 28.568 146.248 31.318C144.188 32.878 142.378 34.528 141.648 37.128C141.208 38.708 139.868 39.658 138.728 40.738C137.958 41.468 137.358 42.378 136.708 43.228C135.928 44.248 135.288 45.388 134.388 46.288C132.418 48.268 130.228 50.038 128.308 52.068C126.818 53.648 125.458 55.388 124.298 57.218C123.418 58.598 122.378 59.638 120.988 60.468C120.258 60.908 119.498 61.528 119.118 62.268C118.208 64.028 116.858 65.358 115.368 66.548C113.948 67.678 112.898 69.048 112.048 70.648C111.548 71.578 110.788 72.448 109.958 73.098C107.888 74.708 106.128 76.538 104.728 78.778C103.058 81.428 101.288 84.028 99.3775 86.508C98.3975 87.778 96.9976 88.718 95.8176 89.838C93.4576 92.058 91.0175 94.208 89.0275 96.788C86.8675 99.588 84.5175 101.898 80.6875 102.488C78.7775 102.788 76.9875 104.138 75.2375 105.168C74.3675 105.688 74.6375 106.778 75.6575 106.968C76.2875 107.088 77.0075 106.968 77.6475 106.788C78.8475 106.448 80.0175 106.348 81.2575 106.708C81.3475 108.568 79.1475 108.948 79.0475 110.778C79.7475 110.628 80.3276 110.558 80.8876 110.388C95.9676 105.728 111.028 101.018 126.128 96.428C132.078 94.618 138.078 92.978 144.098 91.438C151.368 89.578 158.718 88.068 165.948 86.068C168.038 85.488 170.178 85.198 172.258 84.638C173.868 84.208 175.638 84.368 177.348 84.358C178.528 84.348 179.588 84.148 180.708 83.678C184.898 81.918 189.138 80.278 193.368 78.638C196.828 77.288 200.278 75.898 203.798 74.698C205.448 74.138 207.278 74.148 208.948 73.648C213.378 72.308 217.918 73.288 222.388 72.878C223.698 72.758 224.958 72.868 226.018 73.868C226.948 74.748 228.188 74.608 229.338 74.508C230.708 74.398 231.708 74.838 232.838 75.728C234.768 77.268 236.638 79.038 239.198 79.618C239.858 79.768 240.548 80.008 241.078 80.418C242.828 81.778 244.828 82.158 246.968 82.438C249.528 82.778 252.008 83.538 253.958 85.508C254.498 86.058 255.538 86.308 256.368 86.348C258.478 86.428 260.598 86.318 262.718 86.258C264.768 86.188 266.818 86.108 268.858 85.978C269.598 85.928 270.388 85.878 271.048 85.598C274.938 83.938 278.828 82.288 282.648 80.488C286.778 78.538 290.868 76.468 294.908 74.328C296.188 73.648 297.188 73.578 298.518 74.278C301.058 75.618 303.528 77.028 305.778 78.838C307.248 80.018 307.598 81.238 306.648 82.908C305.468 84.968 303.908 86.618 301.708 87.658C300.798 88.088 299.938 88.698 299.188 89.378C298.088 90.388 297.818 91.978 298.418 92.908C299.008 93.818 300.278 94.148 301.728 93.768C302.428 93.558 303.128 93.138 303.978 93.858ZM192.498 85.018C192.288 85.238 191.758 85.568 191.578 86.028C191.338 86.658 192.098 87.448 192.858 87.518C193.588 87.588 193.998 87.228 194.108 86.518C194.218 85.748 193.648 85.088 192.498 85.018Z" fill="black"/>
<path d="M304.478 99.078C305.558 98.978 306.628 98.848 307.708 98.788C323.088 97.888 338.318 95.888 353.348 92.488C364.358 89.998 375.158 86.788 385.468 82.088C387.598 81.118 389.528 79.888 391.388 78.458C394.358 76.168 397.438 74.008 400.478 71.808C401.828 70.828 403.308 70.508 404.948 70.968C405.468 71.118 406.028 71.178 406.568 71.188C407.838 71.198 408.568 71.898 409.038 72.988C409.618 74.358 410.598 75.358 411.858 76.148C413.868 77.418 413.888 77.918 411.838 79.308C408.058 81.878 404.228 84.358 400.418 86.888C399.818 87.288 399.238 87.708 398.628 88.138C399.268 89.178 400.088 88.938 400.768 88.858C404.978 88.368 409.208 87.998 413.368 87.268C425.558 85.108 437.548 82.098 449.498 78.898C451.398 78.388 453.178 77.448 455.058 76.838C456.998 76.208 458.968 75.648 460.958 75.188C463.808 74.518 466.708 74.048 469.558 73.338C472.668 72.558 475.738 71.588 478.838 70.758C480.288 70.368 481.768 70.098 483.238 69.768C485.458 69.268 487.418 69.718 489.098 71.288C489.398 71.568 489.718 71.858 490.088 71.988C492.738 72.968 494.558 75.018 496.438 76.968C498.148 78.748 499.928 80.338 502.178 81.498C504.018 82.448 505.558 83.968 507.228 85.228C507.498 85.428 507.788 85.658 508.098 85.728C510.028 86.128 511.968 86.458 513.898 86.848C517.488 87.558 521.078 87.588 524.678 86.908C524.808 86.878 524.948 86.878 525.088 86.888C529.398 87.208 533.448 86.008 537.508 84.828C538.288 84.598 539.118 84.358 539.908 84.398C542.218 84.508 544.328 83.738 546.518 83.208C548.168 82.808 549.878 82.668 551.558 82.408C552.028 82.338 552.518 82.338 552.978 82.218C555.598 81.508 558.218 80.838 560.808 80.028C562.098 79.618 563.358 79.048 564.518 78.368C567.068 76.868 569.688 75.658 572.628 75.138C575.918 74.548 579.218 73.928 582.468 73.118C584.638 72.578 586.788 71.828 588.818 70.888C598.808 66.288 608.668 61.398 618.738 56.988C632.008 51.178 645.478 45.828 659.318 41.518C664.398 39.938 669.608 38.758 674.758 37.408C675.218 37.288 675.698 37.228 676.178 37.178C677.298 37.058 677.968 37.728 678.478 38.578C678.988 39.408 678.738 40.328 678.078 40.808C676.188 42.188 674.318 43.768 672.188 44.598C669.968 45.458 667.778 46.338 665.738 47.528C664.208 48.418 662.888 49.638 660.988 49.758C660.618 49.778 660.218 50.058 659.908 50.308C656.828 52.748 653.328 54.378 649.688 55.788C647.658 56.568 645.658 57.438 643.648 58.278C643.458 58.358 643.258 58.438 643.118 58.588C640.768 61.008 637.628 61.068 634.598 61.408C633.788 61.498 632.958 61.468 632.148 61.548C631.358 61.628 630.628 61.958 630.458 62.798C630.228 63.938 629.448 64.518 628.548 65.058C627.968 65.408 627.388 65.798 626.868 66.238C625.558 67.358 624.098 67.498 622.688 66.668C621.008 65.688 619.738 65.988 618.238 67.158C616.428 68.578 614.448 69.778 612.598 71.168C610.918 72.418 608.728 73.178 606.418 72.768C604.678 72.468 603.058 72.718 601.508 73.688C601.008 73.998 600.198 73.998 599.578 73.878C597.408 73.468 596.778 73.698 596.178 75.678C595.258 78.698 593.058 80.018 590.138 80.318C588.858 80.448 587.798 80.708 586.918 81.768C584.818 84.288 581.838 84.718 578.818 84.978C578.408 85.018 577.998 84.958 577.588 84.958C576.638 84.958 575.808 85.218 575.448 86.198C575.108 87.118 575.278 87.938 576.058 88.598C576.348 88.848 576.588 89.168 576.968 89.588C576.488 90.008 576.138 90.408 575.698 90.678C573.488 92.048 571.278 93.398 569.048 94.728C567.898 95.408 566.728 95.718 565.338 95.338C564.458 95.098 563.428 95.128 562.518 95.318C559.468 95.968 557.048 94.788 554.818 92.938C554.128 92.358 554.008 91.718 554.668 91.008C554.838 90.828 554.908 90.568 555.228 89.958C554.088 90.058 553.248 90.078 552.438 90.218C545.908 91.378 539.378 92.518 532.868 93.748C527.588 94.748 522.298 94.898 516.978 94.238C514.478 93.928 511.948 93.808 509.488 93.308C507.758 92.948 506.078 92.528 504.288 92.458C503.348 92.418 502.308 91.858 501.538 91.248C499.328 89.518 496.948 88.598 494.118 89.098C494.048 89.108 493.978 89.108 493.918 89.098C491.218 88.698 489.028 89.808 486.898 91.318C485.578 92.248 484.118 93.068 482.598 93.578C479.448 94.638 476.238 95.498 473.018 96.338C472.198 96.548 471.258 96.398 470.378 96.318C468.138 96.118 465.908 95.798 463.658 95.668C461.148 95.538 458.668 95.208 456.108 95.588C454.868 95.768 453.468 95.088 452.168 94.728C451.318 94.488 450.528 94.028 449.678 93.818C446.608 93.068 444.258 91.468 442.698 88.628C441.568 86.568 439.528 86.078 437.378 86.408C435.598 86.688 433.888 86.788 432.108 86.398C430.658 86.078 429.218 86.478 427.998 87.308C426.218 88.518 424.448 88.738 422.378 87.998C419.248 86.878 416.168 87.728 413.158 88.698C410.828 89.448 408.508 90.248 406.188 91.038C405.608 91.238 405.008 91.418 404.488 91.728C401.118 93.698 397.408 94.868 393.778 96.188C390.848 97.248 387.868 96.838 385.148 95.238C384.458 94.838 383.868 94.768 383.228 95.088C380.608 96.378 377.808 96.948 374.918 97.038C371.108 97.148 367.298 97.678 363.498 96.848C361.798 96.478 360.138 96.598 358.468 97.228C357.008 97.778 355.488 98.188 353.958 98.488C353.048 98.668 352.048 98.638 351.138 98.448C349.428 98.098 347.768 98.148 346.058 98.458C342.908 99.018 339.728 99.448 336.568 99.988C335.698 100.138 334.848 100.428 334.028 100.738C332.708 101.238 331.398 101.278 330.008 101.078C328.258 100.828 326.488 100.688 324.718 100.628C319.188 100.438 313.658 100.328 308.128 100.128C306.918 100.088 305.718 99.838 304.518 99.678C304.478 99.428 304.478 99.248 304.478 99.078ZM457.548 88.818C458.788 90.048 460.348 90.538 464.268 90.888C468.288 91.238 472.308 91.468 476.408 90.368C475.768 88.848 473.908 89.458 473.498 88.278C474.498 87.358 475.618 86.698 476.228 85.718C477.618 83.458 479.068 81.448 481.838 80.688C482.958 80.378 483.358 78.848 482.938 77.728C482.648 76.958 481.648 76.588 480.458 76.938C479.958 77.088 479.528 77.458 479.078 77.748C477.888 78.528 476.748 79.378 475.528 80.098C472.858 81.668 469.898 82.428 466.958 83.328C464.048 84.228 461.128 84.418 458.148 84.308C457.478 84.278 456.658 84.158 456.558 85.068C456.528 85.308 457.288 85.648 457.698 85.918C457.808 85.988 457.968 85.958 458.098 86.008C459.138 86.428 459.258 86.988 458.498 87.848C458.178 88.178 457.858 88.498 457.548 88.818ZM401.918 80.998C401.298 81.028 401.088 81.008 400.888 81.058C397.678 81.808 394.538 82.728 392.138 85.188C391.088 86.258 389.918 86.958 388.338 86.848C387.818 86.808 387.228 86.948 386.768 87.178C386.028 87.558 385.348 88.108 385.568 89.098C385.778 90.058 386.598 90.438 387.428 90.368C388.358 90.298 389.278 89.978 390.168 89.678C391.448 89.248 392.668 88.638 393.958 88.268C395.128 87.928 396.098 87.428 396.788 86.398C397.688 85.048 398.968 84.428 400.578 84.318C401.218 84.268 401.908 84.028 402.448 83.668C403.078 83.258 403.678 82.538 403.228 81.778C402.948 81.308 402.168 81.138 401.918 80.998ZM485.698 80.908C486.658 81.388 487.198 81.728 487.788 81.928C489.278 82.428 490.778 82.878 492.288 83.318C494.368 83.928 495.038 83.658 496.178 81.788C497.028 80.408 496.738 79.678 495.148 79.708C492.558 79.748 489.978 79.978 487.398 80.178C486.968 80.208 486.578 80.508 485.698 80.908ZM590.828 78.078C591.428 77.458 591.968 77.128 592.148 76.668C592.368 76.068 591.918 75.638 591.278 75.628C590.578 75.618 590.098 76.048 590.088 76.728C590.078 77.068 590.458 77.428 590.828 78.078Z" fill="black"/>
<path d="M578.048 95.428C578.688 95.298 579.328 95.118 579.978 95.048C592.218 93.798 604.458 92.678 616.768 92.398C617.518 92.378 618.268 92.368 619.018 92.388C620.928 92.438 622.778 92.558 624.638 93.238C626.848 94.058 629.197 94.518 631.487 95.158C631.947 95.288 632.378 95.498 632.828 95.668C635.808 96.828 638.788 97.978 641.758 99.148C642.258 99.348 642.738 99.618 643.228 99.868C644.458 100.498 645.748 100.758 647.148 100.828C650.088 100.978 652.918 101.758 655.688 102.708C656.387 102.948 657.128 103.158 657.858 103.208C662.218 103.488 666.578 103.778 670.948 103.928C673.878 104.028 676.867 104.248 679.737 103.828C689.137 102.448 698.698 102.978 708.068 101.358C709.228 101.158 710.557 101.288 711.677 101.658C712.647 101.978 713.618 102.708 714.268 103.518C715.838 105.458 715.408 106.838 713.088 107.718C711.238 108.428 709.348 108.958 707.298 108.828C705.388 108.708 703.467 108.688 701.557 108.758C700.567 108.798 699.498 108.968 698.608 109.378C695.708 110.708 692.788 111.598 689.518 111.338C688.288 111.238 686.978 111.728 685.758 112.138C684.478 112.558 683.288 112.578 681.958 112.358C680.298 112.078 678.528 111.908 676.888 112.188C673.368 112.808 669.888 112.478 666.508 111.778C659.958 110.408 653.457 108.798 646.987 107.088C644.687 106.478 642.488 105.618 640.068 105.408C638.948 105.308 637.808 104.838 636.798 104.298C634.618 103.128 632.298 102.648 629.878 102.828C628.118 102.958 626.648 102.438 625.298 101.428C623.518 100.088 621.578 99.198 619.348 98.878C617.998 98.688 616.668 98.388 615.348 98.058C611.098 96.998 606.798 97.258 602.508 97.598C597.908 97.958 593.388 97.578 588.848 96.838C586.978 96.528 585.038 96.628 583.128 96.558C582.038 96.518 580.938 96.588 579.848 96.508C579.218 96.458 578.598 96.218 577.978 96.068C578.018 95.858 578.028 95.648 578.048 95.428Z" fill="black"/>
<path d="M432.058 38.868C430.828 40.348 429.308 40.348 427.978 40.378C425.748 40.418 423.518 40.138 421.288 39.998C420.298 39.938 419.648 39.358 419.248 38.518C418.618 37.188 419.568 35.818 421.028 35.928C421.428 35.958 421.838 36.058 422.208 36.208C425.058 37.358 427.978 38.208 431.058 38.468C431.308 38.498 431.548 38.658 432.058 38.868Z" fill="black"/>
<path d="M36.3175 146.598C35.9475 146.688 35.5675 146.788 35.1975 146.878C35.1575 146.708 35.1075 146.548 35.0675 146.378C35.4375 146.278 35.8075 146.178 36.1875 146.078C36.2275 146.248 36.2775 146.428 36.3175 146.598Z" fill="black"/>
</svg>
